<?xml version="1.0" standalone="no"?>
<!DOCTYPE svg PUBLIC "-//W3C//DTD SVG 20010904//EN"
 "http://www.w3.org/TR/2001/REC-SVG-20010904/DTD/svg10.dtd">
<svg version="1.0" xmlns="http://www.w3.org/2000/svg"
 width="512.000000pt" height="512.000000pt" viewBox="0 0 512.000000 512.000000"
 preserveAspectRatio="xMidYMid meet">

<g transform="translate(0.000000,512.000000) scale(0.100000,-0.100000)"
fill="#000000" stroke="none">
<path d="M148 4963 l-148 -147 1133 -1128 1132 -1128 -1132 -1128 -1133 -1128
150 -149 150 -150 1130 1130 1130 1130 1130 -1130 1130 -1130 150 150 149 149
-1132 1128 -1132 1128 1132 1128 1132 1128 -149 149 -150 150 -1130 -1130
-1130 -1130 -1128 1128 c-620 620 -1129 1127 -1132 1127 -3 0 -71 -66 -152
-147z"/>
</g>
</svg>
