<svg width="60" height="45" viewBox="0 0 60 45" fill="none" xmlns="http://www.w3.org/2000/svg">
<path d="M58.1704 0.0164795H2.0619C1.43498 0.0164795 0.926758 0.532767 0.926758 1.16964V43.3424C0.926758 43.9792 1.43498 44.4955 2.0619 44.4955H58.1704C58.7973 44.4955 59.3055 43.9792 59.3055 43.3424V1.16964C59.3055 0.532767 58.7973 0.0164795 58.1704 0.0164795Z" fill="white"/>
<path d="M2.0619 1.49902H28.981C29.6069 1.49902 30.1161 2.0163 30.1161 2.65218V44.4954H2.0619C1.43595 44.4954 0.926758 43.9782 0.926758 43.3423V2.65218C0.926758 2.0163 1.43595 1.49902 2.0619 1.49902Z" fill="#E5F4F6"/>
<path d="M54.1143 11.7128H34.9823C34.6232 11.7128 34.332 12.0085 34.332 12.3734V14.0174C34.332 14.3823 34.6232 14.678 34.9823 14.678H54.1143C54.4735 14.678 54.7646 14.3823 54.7646 14.0174V12.3734C54.7646 12.0085 54.4735 11.7128 54.1143 11.7128Z" fill="#E5F4F6"/>
<path d="M42.4402 25.2212H34.9807C34.6224 25.2212 34.332 25.5162 34.332 25.8801V27.5275C34.332 27.8914 34.6224 28.1865 34.9807 28.1865H42.4402C42.7984 28.1865 43.0888 27.8914 43.0888 27.5275V25.8801C43.0888 25.5162 42.7984 25.2212 42.4402 25.2212Z" fill="#E5F4F6"/>
<path d="M54.1155 25.2212H45.1965C44.8383 25.2212 44.5479 25.5162 44.5479 25.8801V27.5275C44.5479 27.8914 44.8383 28.1865 45.1965 28.1865H54.1155C54.4737 28.1865 54.7641 27.8914 54.7641 27.5275V25.8801C54.7641 25.5162 54.4737 25.2212 54.1155 25.2212Z" fill="#E5F4F6"/>
<path d="M54.1159 18.467H34.9807C34.6224 18.467 34.332 18.7621 34.332 19.126V20.7734C34.332 21.1373 34.6224 21.4323 34.9807 21.4323H54.1159C54.4742 21.4323 54.7646 21.1373 54.7646 20.7734V19.126C54.7646 18.7621 54.4742 18.467 54.1159 18.467Z" fill="#E5F4F6"/>
<path d="M54.1143 31.8108H34.9823C34.6232 31.8108 34.332 32.1065 34.332 32.4714V34.1155C34.332 34.4803 34.6232 34.7761 34.9823 34.7761H54.1143C54.4735 34.7761 54.7646 34.4803 54.7646 34.1155V32.4714C54.7646 32.1065 54.4735 31.8108 54.1143 31.8108Z" fill="#E5F4F6"/>
<path d="M53.3051 36.5881H35.9536C35.1476 36.5881 34.4941 37.2519 34.4941 38.0708V38.4002C34.4941 39.2191 35.1476 39.8829 35.9536 39.8829H53.3051C54.1111 39.8829 54.7645 39.2191 54.7645 38.4002V38.0708C54.7645 37.2519 54.1111 36.5881 53.3051 36.5881Z" fill="#00ACC7"/>
<path d="M37.2619 32.6344H35.7798C35.6069 32.6344 35.4668 32.7767 35.4668 32.9523V33.6344C35.4668 33.81 35.6069 33.9523 35.7798 33.9523H37.2619C37.4348 33.9523 37.5749 33.81 37.5749 33.6344V32.9523C37.5749 32.7767 37.4348 32.6344 37.2619 32.6344Z" fill="#8AD9E4"/>
<path d="M39.6898 9.57129H34.9741C34.709 9.57129 34.4941 9.7896 34.4941 10.0589V10.2368C34.4941 10.5061 34.709 10.7244 34.9741 10.7244H39.6898C39.9549 10.7244 40.1699 10.5061 40.1699 10.2368V10.0589C40.1699 9.7896 39.9549 9.57129 39.6898 9.57129Z" fill="#8AD9E4"/>
<path d="M39.6898 16.3254H34.9741C34.709 16.3254 34.4941 16.5438 34.4941 16.8131V16.991C34.4941 17.2603 34.709 17.4786 34.9741 17.4786H39.6898C39.9549 17.4786 40.1699 17.2603 40.1699 16.991V16.8131C40.1699 16.5438 39.9549 16.3254 39.6898 16.3254Z" fill="#8AD9E4"/>
<path d="M39.6898 23.0797H34.9741C34.709 23.0797 34.4941 23.298 34.4941 23.5673V23.7452C34.4941 24.0146 34.709 24.2329 34.9741 24.2329H39.6898C39.9549 24.2329 40.1699 24.0146 40.1699 23.7452V23.5673C40.1699 23.298 39.9549 23.0797 39.6898 23.0797Z" fill="#8AD9E4"/>
<path d="M49.7436 23.0797H45.0279C44.7628 23.0797 44.5479 23.298 44.5479 23.5673V23.7452C44.5479 24.0146 44.7628 24.2329 45.0279 24.2329H49.7436C50.0087 24.2329 50.2236 24.0146 50.2236 23.7452V23.5673C50.2236 23.298 50.0087 23.0797 49.7436 23.0797Z" fill="#8AD9E4"/>
<path d="M39.5277 29.6692H34.812C34.5469 29.6692 34.332 29.8875 34.332 30.1568V30.3347C34.332 30.604 34.5469 30.8223 34.812 30.8223H39.5277C39.7928 30.8223 40.0077 30.604 40.0077 30.3347V30.1568C40.0077 29.8875 39.7928 29.6692 39.5277 29.6692Z" fill="#8AD9E4"/>
<path d="M20.5629 30.6971H8.32606C7.82184 30.6971 7.41309 31.1124 7.41309 31.6246C7.41309 32.1368 7.82184 32.5521 8.32606 32.5521H20.5629C21.0671 32.5521 21.4759 32.1368 21.4759 31.6246C21.4759 31.1124 21.0671 30.6971 20.5629 30.6971Z" fill="white"/>
<path d="M22.0451 34.0645H8.23039C7.779 34.0645 7.41309 34.4362 7.41309 34.8947V35.0891C7.41309 35.5477 7.779 35.9194 8.23039 35.9194H22.0451C22.4965 35.9194 22.8624 35.5477 22.8624 35.0891V34.8947C22.8624 34.4362 22.4965 34.0645 22.0451 34.0645Z" fill="white"/>
<path d="M22.564 27.2953H8.36174C7.83781 27.2953 7.41309 27.7268 7.41309 28.259C7.41309 28.7912 7.83781 29.2227 8.36174 29.2227H22.564C23.0879 29.2227 23.5126 28.7912 23.5126 28.259C23.5126 27.7268 23.0879 27.2953 22.564 27.2953Z" fill="white"/>
<path d="M15.0007 23.9281H8.14444C7.74052 23.9281 7.41309 24.2607 7.41309 24.6711V25.1126C7.41309 25.5229 7.74052 25.8555 8.14444 25.8555H15.0007C15.4046 25.8555 15.7321 25.5229 15.7321 25.1126V24.6711C15.7321 24.2607 15.4046 23.9281 15.0007 23.9281Z" fill="#8AD9E4"/>
<path d="M10.3779 19.2908C11.99 19.2908 13.2969 17.9632 13.2969 16.3255C13.2969 14.6878 11.99 13.3602 10.3779 13.3602C8.76584 13.3602 7.45898 14.6878 7.45898 16.3255C7.45898 17.9632 8.76584 19.2908 10.3779 19.2908Z" fill="white"/>
<path d="M0.926758 4.29965V1.16964C0.926758 0.535402 1.43757 0.0164795 2.0619 0.0164795H58.1704C58.7947 0.0164795 59.3055 0.535402 59.3055 1.16964V4.29965H0.926758Z" fill="#F3FAFC"/>
<path d="M3.84597 2.98172C4.29377 2.98172 4.65679 2.61295 4.65679 2.15804C4.65679 1.70313 4.29377 1.33435 3.84597 1.33435C3.39817 1.33435 3.03516 1.70313 3.03516 2.15804C3.03516 2.61295 3.39817 2.98172 3.84597 2.98172Z" fill="#84D1DB"/>
<path d="M6.35964 2.98172C6.80745 2.98172 7.17046 2.61295 7.17046 2.15804C7.17046 1.70313 6.80745 1.33435 6.35964 1.33435C5.91184 1.33435 5.54883 1.70313 5.54883 2.15804C5.54883 2.61295 5.91184 2.98172 6.35964 2.98172Z" fill="#84D1DB"/>
<path d="M8.87234 2.98172C9.32014 2.98172 9.68316 2.61295 9.68316 2.15804C9.68316 1.70313 9.32014 1.33435 8.87234 1.33435C8.42454 1.33435 8.06152 1.70313 8.06152 2.15804C8.06152 2.61295 8.42454 2.98172 8.87234 2.98172Z" fill="#84D1DB"/>
</svg>
