<svg width="16" height="16" viewBox="0 0 16 16" fill="none" xmlns="http://www.w3.org/2000/svg">
<path fill-rule="evenodd" clip-rule="evenodd" d="M2.1024 1.28079C4.0224 0.964788 5.992 0.799988 8 0.799988C10.008 0.799988 11.9784 0.964788 13.8976 1.28079C14.0379 1.30392 14.1655 1.37614 14.2575 1.48457C14.3495 1.59299 14.4 1.73058 14.4 1.87279V3.70319C14.3998 4.1803 14.2102 4.63782 13.8728 4.97519L10.1272 8.72159C9.78983 9.05896 9.60021 9.51647 9.6 9.99359V12.4232C9.6 12.9704 9.352 13.4872 8.9248 13.8288L7.3752 15.0688C7.28693 15.1395 7.18047 15.1839 7.06809 15.1967C6.95571 15.2095 6.84199 15.1903 6.74004 15.1413C6.6381 15.0923 6.55208 15.0155 6.49192 14.9197C6.43175 14.8239 6.39989 14.7131 6.4 14.6V9.99439C6.4 9.75801 6.35345 9.52394 6.26299 9.30556C6.17253 9.08717 6.03995 8.88874 5.8728 8.72159L2.1272 4.97599C1.96006 4.80884 1.82747 4.61041 1.73701 4.39202C1.64655 4.17363 1.6 3.93957 1.6 3.70319V1.87199C1.6 1.72978 1.65052 1.59219 1.74253 1.48377C1.83455 1.37534 1.96209 1.30392 2.1024 1.28079Z" fill="#D5DAE2"/>
</svg>
