<svg width="18" height="18" viewBox="0 0 18 18" fill="none" xmlns="http://www.w3.org/2000/svg">
<path fill-rule="evenodd" clip-rule="evenodd" d="M9.9 1.80002C9.9 1.56133 9.80518 1.33241 9.63639 1.16363C9.46761 0.994846 9.23869 0.900024 9 0.900024C8.7613 0.900024 8.53238 0.994846 8.3636 1.16363C8.19482 1.33241 8.1 1.56133 8.1 1.80002V7.65002C8.1 7.76937 8.05259 7.88383 7.9682 7.96822C7.8838 8.05261 7.76934 8.10002 7.65 8.10002C7.53065 8.10002 7.41619 8.05261 7.3318 7.96822C7.24741 7.88383 7.2 7.76937 7.2 7.65002V2.70002C7.2 2.46133 7.10518 2.23241 6.93639 2.06363C6.76761 1.89485 6.53869 1.80002 6.3 1.80002C6.0613 1.80002 5.83238 1.89485 5.6636 2.06363C5.49482 2.23241 5.4 2.46133 5.4 2.70002V7.65002C5.4 7.76937 5.35259 7.88383 5.26819 7.96822C5.1838 8.05261 5.06934 8.10002 4.95 8.10002C4.83065 8.10002 4.71619 8.05261 4.6318 7.96822C4.54741 7.88383 4.5 7.76937 4.5 7.65002V4.50002C4.5 4.26133 4.40518 4.03241 4.23639 3.86363C4.06761 3.69485 3.83869 3.60002 3.6 3.60002C3.3613 3.60002 3.13238 3.69485 2.9636 3.86363C2.79482 4.03241 2.7 4.26133 2.7 4.50002V10.8C2.7 11.6274 2.86295 12.4466 3.17956 13.2109C3.49616 13.9753 3.96021 14.6698 4.54522 15.2548C5.13023 15.8398 5.82474 16.3039 6.58909 16.6205C7.35344 16.9371 8.17267 17.1 9 17.1C9.82732 17.1 10.6466 16.9371 11.4109 16.6205C12.1753 16.3039 12.8698 15.8398 13.4548 15.2548C14.0398 14.6698 14.5038 13.9753 14.8204 13.2109C15.137 12.4466 15.3 11.6274 15.3 10.8V7.20002C15.3 6.96133 15.2052 6.73241 15.0364 6.56363C14.8676 6.39485 14.6387 6.30002 14.4 6.30002C14.1613 6.30002 13.9324 6.39485 13.7636 6.56363C13.5948 6.73241 13.5 6.96133 13.5 7.20002V10.35C13.5 10.4694 13.4526 10.5838 13.3682 10.6682C13.2838 10.7526 13.1693 10.8 13.05 10.8C12.9306 10.8 12.8162 10.7526 12.7318 10.6682C12.6474 10.5838 12.6 10.4694 12.6 10.35V2.70002C12.6 2.46133 12.5052 2.23241 12.3364 2.06363C12.1676 1.89485 11.9387 1.80002 11.7 1.80002C11.4613 1.80002 11.2324 1.89485 11.0636 2.06363C10.8948 2.23241 10.8 2.46133 10.8 2.70002V7.65002C10.8 7.76937 10.7526 7.88383 10.6682 7.96822C10.5838 8.05261 10.4693 8.10002 10.35 8.10002C10.2306 8.10002 10.1162 8.05261 10.0318 7.96822C9.94741 7.88383 9.9 7.76937 9.9 7.65002V1.80002Z" fill="#D5DAE2"/>
</svg>
