<svg width="60" height="45" viewBox="0 0 60 45" fill="none" xmlns="http://www.w3.org/2000/svg">
<path d="M58.1704 0.488037H2.0619C1.43498 0.488037 0.926758 1.00432 0.926758 1.6412V43.8139C0.926758 44.4508 1.43498 44.9671 2.0619 44.9671H58.1704C58.7973 44.9671 59.3055 44.4508 59.3055 43.8139V1.6412C59.3055 1.00432 58.7973 0.488037 58.1704 0.488037Z" fill="white"/>
<path d="M0.926758 4.7712V1.6412C0.926758 1.00696 1.43757 0.488037 2.0619 0.488037H58.1704C58.7947 0.488037 59.3055 1.00696 59.3055 1.6412V4.7712H0.926758Z" fill="#F3FAFC"/>
<path d="M3.84597 3.45328C4.29377 3.45328 4.65679 3.0845 4.65679 2.62959C4.65679 2.17468 4.29377 1.80591 3.84597 1.80591C3.39817 1.80591 3.03516 2.17468 3.03516 2.62959C3.03516 3.0845 3.39817 3.45328 3.84597 3.45328Z" fill="#84D1DB"/>
<path d="M6.35964 3.45328C6.80745 3.45328 7.17046 3.0845 7.17046 2.62959C7.17046 2.17468 6.80745 1.80591 6.35964 1.80591C5.91184 1.80591 5.54883 2.17468 5.54883 2.62959C5.54883 3.0845 5.91184 3.45328 6.35964 3.45328Z" fill="#84D1DB"/>
<path d="M8.87234 3.45328C9.32014 3.45328 9.68316 3.0845 9.68316 2.62959C9.68316 2.17468 9.32014 1.80591 8.87234 1.80591C8.42454 1.80591 8.06152 2.17468 8.06152 2.62959C8.06152 3.0845 8.42454 3.45328 8.87234 3.45328Z" fill="#84D1DB"/>
<path d="M53.6538 9.38379H6.30213C5.67521 9.38379 5.16699 9.90008 5.16699 10.5369V24.5396C5.16699 25.1765 5.67521 25.6928 6.30213 25.6928H53.6538C54.2807 25.6928 54.7889 25.1765 54.7889 24.5396V10.5369C54.7889 9.90008 54.2807 9.38379 53.6538 9.38379Z" fill="#8AD9E4"/>
<path d="M42.5038 32.5015H17.9718C17.4022 32.5015 16.9404 32.9705 16.9404 33.5492V33.5673C16.9404 34.146 17.4022 34.615 17.9718 34.615H42.5038C43.0734 34.615 43.5352 34.146 43.5352 33.5673V33.5492C43.5352 32.9705 43.0734 32.5015 42.5038 32.5015Z" fill="#E3F6F9"/>
<path d="M38.7594 29.1654H21.0674C20.624 29.1654 20.2646 29.5305 20.2646 29.9809V30.4635C20.2646 30.9139 20.624 31.279 21.0674 31.279H38.7594C39.2027 31.279 39.5621 30.9139 39.5621 30.4635V29.9809C39.5621 29.5305 39.2027 29.1654 38.7594 29.1654Z" fill="#8AD9E4"/>
<path d="M34.6569 37.5538H25.4136C24.6075 37.5538 23.9541 38.2176 23.9541 39.0365V39.3659C23.9541 40.1848 24.6075 40.8486 25.4136 40.8486H34.6569C35.4629 40.8486 36.1163 40.1848 36.1163 39.3659V39.0365C36.1163 38.2176 35.4629 37.5538 34.6569 37.5538Z" fill="#00ACC7"/>
<path d="M27.8213 17.456V15.2321L29.9781 16.344L32.1348 17.456L29.9781 18.568L27.8213 19.68V17.456Z" fill="white"/>
</svg>
