<svg width="17" height="17" viewBox="0 0 17 17" fill="none" xmlns="http://www.w3.org/2000/svg">
<path d="M10.4408 6.375L10.1957 12.75M6.80425 12.75L6.55917 6.375M13.6198 4.10125C13.8621 4.13809 14.1029 4.17705 14.3437 4.21884M13.6198 4.10125L12.8633 13.935C12.8325 14.3354 12.6516 14.7094 12.3569 14.9821C12.0622 15.2549 11.6754 15.4064 11.2738 15.4063L5.72617 15.4063C5.32461 15.4064 4.93781 15.2549 4.64311 14.9821C4.34841 14.7094 4.16754 14.3354 4.13667 13.935L3.38017 4.10125M13.6198 4.10125C12.8023 3.97766 11.9806 3.88386 11.1562 3.82005M3.38017 4.10125C3.13792 4.13738 2.89708 4.17634 2.65625 4.21813M3.38017 4.10125C4.19768 3.97766 5.01942 3.88386 5.84375 3.82005M11.1562 3.82005V3.17121C11.1562 2.33538 10.5117 1.63838 9.67583 1.61217C8.89214 1.58712 8.10786 1.58712 7.32417 1.61217C6.48833 1.63838 5.84375 2.33609 5.84375 3.17121V3.82005M11.1562 3.82005C9.38805 3.68339 7.61195 3.68339 5.84375 3.82005" stroke="#A9B0BF" stroke-width="1.5" stroke-linecap="round" stroke-linejoin="round"/>
</svg>
