<svg width="24" height="24" viewBox="0 0 24 24" fill="none" xmlns="http://www.w3.org/2000/svg">
<path d="M9.75 10.5H2.25C1.83582 10.5 1.5 10.1646 1.5 9.75V2.25C1.5 1.83545 1.83582 1.5 2.25 1.5H9.75C10.1642 1.5 10.5 1.83545 10.5 2.25V9.75C10.5 10.1646 10.1642 10.5 9.75 10.5ZM3 9H9V3H3V9Z" fill="white"/>
<path d="M4.59485 22.5C4.40295 22.5 4.21106 22.4268 4.06458 22.2803L1.71973 19.9358C1.42676 19.6428 1.42676 19.1682 1.71973 18.8752C2.0127 18.5823 2.4873 18.5823 2.78027 18.8752L4.59485 20.6895L9.21973 16.0642C9.5127 15.7712 9.9873 15.7712 10.2803 16.0642C10.5732 16.3572 10.5732 16.8318 10.2803 17.1248L5.12512 22.2803C4.97864 22.4268 4.78674 22.5 4.59485 22.5Z" fill="white"/>
<path d="M21.75 6.75H14.25C13.8358 6.75 13.5 6.41455 13.5 6C13.5 5.58545 13.8358 5.25 14.25 5.25H21.75C22.1642 5.25 22.5 5.58545 22.5 6C22.5 6.41455 22.1642 6.75 21.75 6.75Z" fill="white"/>
<path d="M21.75 18.75H14.25C13.8358 18.75 13.5 18.4146 13.5 18C13.5 17.5854 13.8358 17.25 14.25 17.25H21.75C22.1642 17.25 22.5 17.5854 22.5 18C22.5 18.4146 22.1642 18.75 21.75 18.75Z" fill="white"/>
</svg>
