<svg width="18" height="18" viewBox="0 0 18 18" fill="none" xmlns="http://www.w3.org/2000/svg">
<path d="M11.8125 12.9375V15.4688C11.8125 15.9345 11.4345 16.3125 10.9688 16.3125H3.65625C3.43247 16.3125 3.21786 16.2236 3.05963 16.0654C2.90139 15.9071 2.8125 15.6925 2.8125 15.4688V5.90625C2.8125 5.4405 3.1905 5.0625 3.65625 5.0625H5.0625C5.43943 5.06224 5.81573 5.09335 6.1875 5.1555M11.8125 12.9375H14.3438C14.8095 12.9375 15.1875 12.5595 15.1875 12.0938V8.4375C15.1875 5.0925 12.7552 2.31675 9.5625 1.7805C9.19073 1.71835 8.81443 1.68725 8.4375 1.6875H7.03125C6.5655 1.6875 6.1875 2.0655 6.1875 2.53125V5.1555M11.8125 12.9375H7.03125C6.80747 12.9375 6.59286 12.8486 6.43463 12.6904C6.27639 12.5321 6.1875 12.3175 6.1875 12.0938V5.1555M15.1875 10.125V8.71875C15.1875 8.04742 14.9208 7.40359 14.4461 6.92889C13.9714 6.45419 13.3276 6.1875 12.6562 6.1875H11.5312C11.3075 6.1875 11.0929 6.09861 10.9346 5.94037C10.7764 5.78214 10.6875 5.56753 10.6875 5.34375V4.21875C10.6875 3.88634 10.622 3.55719 10.4948 3.25008C10.3676 2.94298 10.1812 2.66394 9.94611 2.42889C9.71107 2.19384 9.43202 2.00739 9.12492 1.88018C8.81781 1.75297 8.48866 1.6875 8.15625 1.6875H7.3125" stroke="#777C86" stroke-width="1.5" stroke-linecap="round" stroke-linejoin="round"/>
</svg>
