<svg width="40" height="40" viewBox="0 0 40 40" fill="none" xmlns="http://www.w3.org/2000/svg">
<path d="M20 5C11.725 5 5 11.725 5 20C5 28.275 11.725 35 20 35C28.275 35 35 28.275 35 20C35 11.725 28.275 5 20 5ZM20 32.5C13.1 32.5 7.5 26.9 7.5 20C7.5 13.1 13.1 7.5 20 7.5C26.9 7.5 32.5 13.1 32.5 20C32.5 26.9 26.9 32.5 20 32.5Z" fill="black"/>
<path d="M20 17.125C19.3 17.125 18.75 17.675 18.75 18.375V26.875C18.75 27.575 19.3 28.125 20 28.125C20.7 28.125 21.25 27.575 21.25 26.875V18.375C21.25 17.7 20.7 17.125 20 17.125Z" fill="black"/>
<path d="M20.025 12C19.375 11.95 18.775 12.625 18.75 13.3C18.75 13.325 18.75 13.475 18.75 13.5C18.75 14.175 19.275 14.675 19.975 14.7H20C20.675 14.7 21.225 14.1 21.25 13.45C21.25 13.425 21.25 13.175 21.25 13.175C21.25 12.45 20.725 12 20.025 12Z" fill="black"/>
</svg>
