<svg width="18" height="18" viewBox="0 0 18 18" fill="none" xmlns="http://www.w3.org/2000/svg">
<path d="M11.055 6.75002L10.7955 13.5M7.2045 13.5L6.945 6.75002M14.421 4.34252C14.6775 4.38152 14.9325 4.42277 15.1875 4.46702M14.421 4.34252L13.62 14.7548C13.5873 15.1787 13.3958 15.5746 13.0838 15.8635C12.7717 16.1523 12.3622 16.3126 11.937 16.3125H6.063C5.63782 16.3126 5.22827 16.1523 4.91623 15.8635C4.6042 15.5746 4.41269 15.1787 4.38 14.7548L3.579 4.34252M14.421 4.34252C13.5554 4.21166 12.6853 4.11235 11.8125 4.04477M3.579 4.34252C3.3225 4.38077 3.0675 4.42202 2.8125 4.46627M3.579 4.34252C4.4446 4.21166 5.31468 4.11235 6.1875 4.04477M11.8125 4.04477V3.35777C11.8125 2.47277 11.13 1.73477 10.245 1.70702C9.41521 1.6805 8.58479 1.6805 7.755 1.70702C6.87 1.73477 6.1875 2.47352 6.1875 3.35777V4.04477M11.8125 4.04477C9.94029 3.90008 8.05971 3.90008 6.1875 4.04477" stroke="#777C86" stroke-width="1.5" stroke-linecap="round" stroke-linejoin="round"/>
</svg>
