<svg width="20" height="20" viewBox="0 0 20 20" fill="none" xmlns="http://www.w3.org/2000/svg">
<path d="M7.995 3.28333C8.07 2.83167 8.46167 2.5 8.92 2.5H11.0808C11.5392 2.5 11.9308 2.83167 12.0058 3.28333L12.1833 4.35083C12.2358 4.6625 12.4442 4.9225 12.7208 5.07583C12.7825 5.10917 12.8433 5.145 12.9042 5.18167C13.1742 5.345 13.5042 5.39583 13.8 5.285L14.8142 4.905C15.022 4.82684 15.2508 4.82498 15.4599 4.89976C15.669 4.97454 15.8447 5.1211 15.9558 5.31333L17.0358 7.18583C17.1467 7.37809 17.1858 7.60344 17.1461 7.8218C17.1064 8.04017 16.9906 8.23737 16.8192 8.37833L15.9833 9.0675C15.7392 9.2675 15.6183 9.57833 15.6242 9.89417C15.6255 9.96499 15.6255 10.0358 15.6242 10.1067C15.6183 10.4217 15.7392 10.7317 15.9825 10.9317L16.82 11.6217C17.1733 11.9133 17.265 12.4167 17.0367 12.8133L15.955 14.6858C15.844 14.878 15.6685 15.0246 15.4596 15.0996C15.2507 15.1745 15.022 15.1729 14.8142 15.095L13.8 14.715C13.5042 14.6042 13.175 14.655 12.9033 14.8183C12.8429 14.8551 12.7818 14.8906 12.72 14.925C12.4442 15.0775 12.2358 15.3375 12.1833 15.6492L12.0058 16.7158C11.9308 17.1683 11.5392 17.5 11.0808 17.5H8.91916C8.46083 17.5 8.06917 17.1683 7.99417 16.7167L7.81666 15.6492C7.765 15.3375 7.55666 15.0775 7.28 14.9242C7.21821 14.8901 7.15708 14.8548 7.09666 14.8183C6.82583 14.655 6.49666 14.6042 6.2 14.715L5.18583 15.095C4.97811 15.1729 4.74947 15.1747 4.54058 15.0999C4.33169 15.0251 4.15609 14.8787 4.045 14.6867L2.96416 12.8142C2.85328 12.6219 2.8142 12.3966 2.85388 12.1782C2.89355 11.9598 3.00941 11.7626 3.18083 11.6217L4.0175 10.9325C4.26083 10.7325 4.38166 10.4217 4.37583 10.1058C4.37453 10.035 4.37453 9.96416 4.37583 9.89333C4.38166 9.57833 4.26083 9.26833 4.0175 9.06833L3.18083 8.37833C3.00961 8.23741 2.89389 8.04036 2.85423 7.82219C2.81456 7.60401 2.85351 7.37884 2.96416 7.18667L4.045 5.31417C4.15599 5.12178 4.33168 4.97505 4.54076 4.90011C4.74984 4.82518 4.97874 4.82691 5.18666 4.905L6.2 5.285C6.49666 5.39583 6.82583 5.345 7.09666 5.18167C7.15666 5.145 7.21833 5.10917 7.28 5.075C7.55666 4.9225 7.765 4.6625 7.81666 4.35083L7.995 3.28333Z" stroke="#777C86" stroke-width="1.5" stroke-linecap="round" stroke-linejoin="round"/>
<path d="M12.5 10C12.5 10.663 12.2366 11.2989 11.7678 11.7678C11.2989 12.2366 10.663 12.5 10 12.5C9.33696 12.5 8.70107 12.2366 8.23223 11.7678C7.76339 11.2989 7.5 10.663 7.5 10C7.5 9.33696 7.76339 8.70107 8.23223 8.23223C8.70107 7.76339 9.33696 7.5 10 7.5C10.663 7.5 11.2989 7.76339 11.7678 8.23223C12.2366 8.70107 12.5 9.33696 12.5 10Z" stroke="#777C86" stroke-width="1.5" stroke-linecap="round" stroke-linejoin="round"/>
</svg>
