<svg width="26" height="26" viewBox="0 0 26 26" fill="none" xmlns="http://www.w3.org/2000/svg">
<path d="M13.0002 3.90002C13.5174 3.90002 14.0134 4.10547 14.3791 4.47117C14.7447 4.83686 14.9502 5.33285 14.9502 5.85002C14.9502 6.3672 14.7447 6.86319 14.3791 7.22888C14.0134 7.59458 13.5174 7.80002 13.0002 7.80002C12.483 7.80002 11.987 7.59458 11.6213 7.22888C11.2556 6.86319 11.0502 6.3672 11.0502 5.85002C11.0502 5.33285 11.2556 4.83686 11.6213 4.47117C11.987 4.10547 12.483 3.90002 13.0002 3.90002ZM13.0002 11.05C13.5174 11.05 14.0134 11.2555 14.3791 11.6212C14.7447 11.9869 14.9502 12.4829 14.9502 13C14.9502 13.5172 14.7447 14.0132 14.3791 14.3789C14.0134 14.7446 13.5174 14.95 13.0002 14.95C12.483 14.95 11.987 14.7446 11.6213 14.3789C11.2556 14.0132 11.0502 13.5172 11.0502 13C11.0502 12.4829 11.2556 11.9869 11.6213 11.6212C11.987 11.2555 12.483 11.05 13.0002 11.05ZM14.9502 20.15C14.9502 19.6329 14.7447 19.1369 14.3791 18.7712C14.0134 18.4055 13.5174 18.2 13.0002 18.2C12.483 18.2 11.987 18.4055 11.6213 18.7712C11.2556 19.1369 11.0502 19.6329 11.0502 20.15C11.0502 20.6672 11.2556 21.1632 11.6213 21.5289C11.987 21.8946 12.483 22.1 13.0002 22.1C13.5174 22.1 14.0134 21.8946 14.3791 21.5289C14.7447 21.1632 14.9502 20.6672 14.9502 20.15Z" fill="#9B9B9B"/>
</svg>
