<svg width="18" height="18" viewBox="0 0 18 18" fill="none" xmlns="http://www.w3.org/2000/svg">
<path d="M7.125 7.75H0.875C0.529846 7.75 0.25 7.47046 0.25 7.125V0.875C0.25 0.529541 0.529846 0.25 0.875 0.25H7.125C7.47015 0.25 7.75 0.529541 7.75 0.875V7.125C7.75 7.47046 7.47015 7.75 7.125 7.75ZM1.5 6.5H6.5V1.5H1.5V6.5Z" fill="#131313"/>
<path d="M2.82904 17.75C2.66913 17.75 2.50922 17.689 2.38715 17.5669L0.433105 15.6132C0.188965 15.369 0.188965 14.9735 0.433105 14.7294C0.677246 14.4852 1.07275 14.4852 1.31689 14.7294L2.82904 16.2412L6.68311 12.3868C6.92725 12.1427 7.32275 12.1427 7.56689 12.3868C7.81104 12.631 7.81104 13.0265 7.56689 13.2706L3.27094 17.5669C3.14886 17.689 2.98895 17.75 2.82904 17.75Z" fill="#131313"/>
<path d="M17.125 4.625H10.875C10.5298 4.625 10.25 4.34546 10.25 4C10.25 3.65454 10.5298 3.375 10.875 3.375H17.125C17.4702 3.375 17.75 3.65454 17.75 4C17.75 4.34546 17.4702 4.625 17.125 4.625Z" fill="#131313"/>
<path d="M17.125 14.625H10.875C10.5298 14.625 10.25 14.3455 10.25 14C10.25 13.6545 10.5298 13.375 10.875 13.375H17.125C17.4702 13.375 17.75 13.6545 17.75 14C17.75 14.3455 17.4702 14.625 17.125 14.625Z" fill="#131313"/>
</svg>
