<svg width="59" height="46" viewBox="0 0 59 46" fill="none" xmlns="http://www.w3.org/2000/svg">
<g clip-path="url(#clip0_244_785)">
<path d="M57.8528 0H1.14722C0.513629 0 0 0.533942 0 1.19259V44.8074C0 45.4661 0.513629 46 1.14722 46H57.8528C58.4864 46 59 45.4661 59 44.8074V1.19259C59 0.533942 58.4864 0 57.8528 0Z" fill="white"/>
<path d="M0 4.42963V1.19259C0 0.536667 0.51625 0 1.14722 0H57.8528C58.4837 0 59 0.536667 59 1.19259V4.42963H0Z" fill="#F3FAFC"/>
<path d="M2.9503 3.06662C3.40287 3.06662 3.76975 2.68523 3.76975 2.21477C3.76975 1.7443 3.40287 1.36292 2.9503 1.36292C2.49774 1.36292 2.13086 1.7443 2.13086 2.21477C2.13086 2.68523 2.49774 3.06662 2.9503 3.06662Z" fill="#84D1DB"/>
<path d="M5.49034 3.06662C5.94291 3.06662 6.30979 2.68523 6.30979 2.21477C6.30979 1.7443 5.94291 1.36292 5.49034 1.36292C5.03778 1.36292 4.6709 1.7443 4.6709 2.21477C4.6709 2.68523 5.03778 3.06662 5.49034 3.06662Z" fill="#84D1DB"/>
<path d="M8.03038 3.06662C8.48295 3.06662 8.84983 2.68523 8.84983 2.21477C8.84983 1.7443 8.48295 1.36292 8.03038 1.36292C7.57782 1.36292 7.21094 1.7443 7.21094 2.21477C7.21094 2.68523 7.57782 3.06662 8.03038 3.06662Z" fill="#84D1DB"/>
<path d="M53.4686 9.02966H5.53105C4.92009 9.02966 4.4248 9.54454 4.4248 10.1797V27.813C4.4248 28.4481 4.92009 28.963 5.53105 28.963H53.4686C54.0795 28.963 54.5748 28.4481 54.5748 27.813V10.1797C54.5748 9.54454 54.0795 9.02966 53.4686 9.02966Z" fill="#E5F4F6"/>
<mask id="mask0_244_785" style="mask-type:luminance" maskUnits="userSpaceOnUse" x="4" y="9" width="51" height="20">
<path d="M53.4686 9.02966H5.53105C4.92009 9.02966 4.4248 9.54454 4.4248 10.1797V27.813C4.4248 28.4481 4.92009 28.963 5.53105 28.963H53.4686C54.0795 28.963 54.5748 28.4481 54.5748 27.813V10.1797C54.5748 9.54454 54.0795 9.02966 53.4686 9.02966Z" fill="white"/>
</mask>
<g mask="url(#mask0_244_785)">
<path d="M19.1748 28.9801L26.5859 23.2011L30.3537 26.0685L45.3052 14.5634L50.8644 18.8567L54.6322 15.9979V28.9801H19.1748Z" fill="#8AD9E4"/>
<path d="M12.6552 5.1759C15.4151 5.1759 17.6538 7.50316 17.6538 10.3739C17.6538 13.2446 15.4167 15.5719 12.6552 15.5719C9.89368 15.5719 7.65332 13.2446 7.65332 10.3739C7.65332 7.50316 9.89368 5.1759 12.6552 5.1759Z" fill="#8AD9E4"/>
</g>
<path d="M17.9001 39.1136H9.38775C8.88721 39.1136 8.48145 39.5355 8.48145 40.0558V40.3574C8.48145 40.8777 8.88721 41.2995 9.38775 41.2995H17.9001C18.4007 41.2995 18.8064 40.8777 18.8064 40.3574V40.0558C18.8064 39.5355 18.4007 39.1136 17.9001 39.1136Z" fill="#E3F6F9"/>
<path d="M17.9001 35.6636H9.38775C8.88721 35.6636 8.48145 36.0854 8.48145 36.6057V36.9073C8.48145 37.4276 8.88721 37.8494 9.38775 37.8494H17.9001C18.4007 37.8494 18.8064 37.4276 18.8064 36.9073V36.6057C18.8064 36.0854 18.4007 35.6636 17.9001 35.6636Z" fill="#E3F6F9"/>
<path d="M16.3463 32.2136H10.9413C10.5331 32.2136 10.2021 32.5576 10.2021 32.982V33.6311C10.2021 34.0555 10.5331 34.3995 10.9413 34.3995H16.3463C16.7546 34.3995 17.0855 34.0555 17.0855 33.6311V32.982C17.0855 32.5576 16.7546 32.2136 16.3463 32.2136Z" fill="#8AD9E4"/>
<path d="M33.5515 39.1136H25.0391C24.5386 39.1136 24.1328 39.5355 24.1328 40.0558V40.3574C24.1328 40.8777 24.5386 41.2995 25.0391 41.2995H33.5515C34.052 41.2995 34.4578 40.8777 34.4578 40.3574V40.0558C34.4578 39.5355 34.052 39.1136 33.5515 39.1136Z" fill="#E3F6F9"/>
<path d="M33.5515 35.6636H25.0391C24.5386 35.6636 24.1328 36.0854 24.1328 36.6057V36.9073C24.1328 37.4276 24.5386 37.8494 25.0391 37.8494H33.5515C34.052 37.8494 34.4578 37.4276 34.4578 36.9073V36.6057C34.4578 36.0854 34.052 35.6636 33.5515 35.6636Z" fill="#E3F6F9"/>
<path d="M31.9977 32.2136H26.5927C26.1844 32.2136 25.8535 32.5576 25.8535 32.982V33.6311C25.8535 34.0555 26.1844 34.3995 26.5927 34.3995H31.9977C32.4059 34.3995 32.7368 34.0555 32.7368 33.6311V32.982C32.7368 32.5576 32.4059 32.2136 31.9977 32.2136Z" fill="#8AD9E4"/>
<path d="M49.2029 39.1136H40.6905C40.1899 39.1136 39.7842 39.5355 39.7842 40.0558V40.3574C39.7842 40.8777 40.1899 41.2995 40.6905 41.2995H49.2029C49.7034 41.2995 50.1092 40.8777 50.1092 40.3574V40.0558C50.1092 39.5355 49.7034 39.1136 49.2029 39.1136Z" fill="#E3F6F9"/>
<path d="M49.2029 35.6636H40.6905C40.1899 35.6636 39.7842 36.0854 39.7842 36.6057V36.9073C39.7842 37.4276 40.1899 37.8494 40.6905 37.8494H49.2029C49.7034 37.8494 50.1092 37.4276 50.1092 36.9073V36.6057C50.1092 36.0854 49.7034 35.6636 49.2029 35.6636Z" fill="#E3F6F9"/>
<path d="M47.6491 32.2136H42.244C41.8358 32.2136 41.5049 32.5576 41.5049 32.982V33.6311C41.5049 34.0555 41.8358 34.3995 42.244 34.3995H47.6491C48.0573 34.3995 48.3882 34.0555 48.3882 33.6311V32.982C48.3882 32.5576 48.0573 32.2136 47.6491 32.2136Z" fill="#8AD9E4"/>
</g>
<rect x="0.5" y="0.5" width="58" height="45" rx="2.5" stroke="#E0E7EA"/>
<defs>
<clipPath id="clip0_244_785">
<rect width="59" height="46" rx="3" fill="white"/>
</clipPath>
</defs>
</svg>
